<?xml version="1.0" encoding="utf-8"?>
<!DOCTYPE svg PUBLIC "-//W3C//DTD SVG 1.1//EN" "http://www.w3.org/Graphics/SVG/1.1/DTD/svg11.dtd">
<svg version="1.1" xmlns="http://www.w3.org/2000/svg" xmlns:xlink="http://www.w3.org/1999/xlink" x="0px" y="0px" viewBox="0 0 1000 1000" enable-background="new 0 0 1000 1000" xml:space="preserve">
<g><path d="M980.9,942.2L697.3,658.6c-0.1-0.1-0.3-0.3-0.4-0.4c61.5-69.3,98.8-160.5,98.8-260.5c0-217-175.9-392.8-392.9-392.8C185.9,4.9,10,180.8,10,397.8c0,217,175.9,392.9,392.8,392.9c94.8,0,181.7-33.6,249.6-89.4c0.4,0.4,0.8,0.8,1.1,1.2L937.2,986c6,6,14,9.1,21.9,9.1s15.8-3,21.9-9.1C993,973.9,993,954.3,980.9,942.2z M531.6,702.7c-40.8,17.2-84.1,26-128.8,26c-44.7,0-88-8.7-128.8-26c-39.4-16.7-74.8-40.5-105.2-71c-30.4-30.4-54.3-65.8-70.9-105.2c-17.2-40.8-26-84.1-26-128.8c0-44.7,8.7-88,26-128.8c16.7-39.4,40.5-74.8,70.9-105.2c30.4-30.4,65.8-54.3,105.2-70.9c40.8-17.2,84.1-26,128.8-26c44.7,0,88,8.7,128.8,26c39.4,16.7,74.8,40.5,105.2,70.9c30.4,30.4,54.3,65.8,70.9,105.2c17.2,40.8,26,84.1,26,128.8c0,44.7-8.7,88-26,128.8c-16.7,39.4-40.5,74.8-70.9,105.2C606.4,662.2,571,686.1,531.6,702.7z"/></g>
</svg>