<?xml version="1.0" encoding="utf-8"?>
<!-- Generator: Adobe Illustrator 19.2.0, SVG Export Plug-In . SVG Version: 6.00 Build 0)  -->
<svg version="1.1" id="Layer_1" xmlns="http://www.w3.org/2000/svg" xmlns:xlink="http://www.w3.org/1999/xlink" x="0px" y="0px"
	 width="402px" height="386px" viewBox="0 0 402 386" style="enable-background:new 0 0 402 386;" xml:space="preserve">
<g>
	<g>
		<g>
			<path style="fill:#95a6b8;" d="M287.2,77.2l25.1,25.1c1.3,1.3,3.4,1.3,4.7,0c1.3-1.3,1.3-3.4,0-4.7L292,72.5
				c-1.3-1.3-3.4-1.3-4.7,0C285.9,73.8,285.9,75.9,287.2,77.2"/>
			<path style="fill:#95a6b8;" d="M292,102.3l25.1-25.1c1.3-1.3,1.3-3.4,0-4.7c-1.3-1.3-3.4-1.3-4.7,0l-25.1,25.1
				c-1.3,1.3-1.3,3.4,0,4.7C288.5,103.6,290.7,103.6,292,102.3"/>
			<path style="fill:#95a6b8;" d="M322.8,47.8l11.8,11.8c0.7,0.7,1.7,0.7,2.4,0c0.7-0.7,0.7-1.7,0-2.4l-11.8-11.8
				c-0.7-0.7-1.7-0.7-2.4,0C322.1,46.1,322.1,47.2,322.8,47.8"/>
			<path style="fill:#95a6b8;" d="M325.2,59.6l11.8-11.8c0.7-0.7,0.7-1.7,0-2.4c-0.7-0.7-1.7-0.7-2.4,0l-11.8,11.8
				c-0.7,0.7-0.7,1.7,0,2.4C323.4,60.3,324.5,60.3,325.2,59.6"/>
			<path style="fill:#95a6b8;" d="M345.4,79.5l11.8,11.8c0.7,0.7,1.7,0.7,2.4,0c0.7-0.7,0.7-1.7,0-2.4l-11.8-11.8
				c-0.7-0.7-1.7-0.7-2.4,0C344.7,77.8,344.7,78.8,345.4,79.5"/>
			<path style="fill:#95a6b8;" d="M347.8,91.2l11.8-11.8c0.7-0.7,0.7-1.7,0-2.4c-0.7-0.7-1.7-0.7-2.4,0l-11.8,11.8
				c-0.7,0.7-0.7,1.7,0,2.4C346.1,91.9,347.1,91.9,347.8,91.2"/>
			<path style="fill:#95a6b8;" d="M353.5,39l9.5,9.5c0.7,0.7,1.7,0.7,2.4,0c0.7-0.7,0.7-1.7,0-2.4l-9.5-9.5c-0.7-0.7-1.7-0.7-2.4,0
				C352.9,37.3,352.9,38.3,353.5,39"/>
			<path style="fill:#95a6b8;" d="M355.9,48.5l9.5-9.5c0.7-0.7,0.7-1.7,0-2.4c-0.7-0.7-1.7-0.7-2.4,0l-9.5,9.5
				c-0.7,0.7-0.7,1.7,0,2.4C354.2,49.2,355.2,49.2,355.9,48.5"/>
		</g>
	</g>
	<g>
		<g>
			<g>
				<g>
					<g>
						
							<line style="fill:none;stroke:#95a6b8;stroke-width:2;stroke-linecap:round;stroke-miterlimit:10;" x1="145.6" y1="240.7" x2="166.5" y2="261.5"/>
						
							<line style="fill:none;stroke:#95a6b8;stroke-width:2;stroke-linecap:round;stroke-miterlimit:10;" x1="145.6" y1="261.5" x2="166.5" y2="240.7"/>
					</g>
					<g>
						
							<line style="fill:none;stroke:#95a6b8;stroke-width:2;stroke-linecap:round;stroke-miterlimit:10;" x1="198" y1="240.7" x2="218.8" y2="261.6"/>
						
							<line style="fill:none;stroke:#95a6b8;stroke-width:2;stroke-linecap:round;stroke-miterlimit:10;" x1="198" y1="261.6" x2="218.8" y2="240.7"/>
					</g>
					<line style="fill:none;stroke:#95a6b8;stroke-width:2;stroke-miterlimit:10;" x1="148" y1="279" x2="221" y2="279"/>
					<path style="fill:none;stroke:#95a6b8;stroke-width:2;stroke-miterlimit:10;" d="M200.1,311h11.3c4.3,0,7.7-3.5,7.7-7.8V279
						h-26v24.7C193,307.7,196.1,311,200.1,311z"/>
				</g>
			</g>
		</g>
		<g>
			<path style="fill:none;stroke:#95a6b8;stroke-width:2;stroke-miterlimit:10;" d="M314,340.9H53c-5.7,0-10.3-4.6-10.3-10.3V139.1
				c0-5.7,4.6-10.3,10.3-10.3h261c5.7,0,10.3,4.6,10.3,10.3v191.4C324.3,336.2,319.7,340.9,314,340.9z"/>
			<line style="fill:none;stroke:#95a6b8;stroke-width:2;stroke-miterlimit:10;" x1="42.8" y1="160" x2="324.4" y2="160"/>
			<g>
				<g>
					<circle style="fill:#95a6b8;" cx="58.3" cy="146.5" r="3.3"/>
					<circle style="fill:#95a6b8;" cx="69.2" cy="146.5" r="3.3"/>
					<circle style="fill:#95a6b8;" cx="80" cy="146.5" r="3.3"/>
				</g>
			</g>
		</g>
	</g>
</g>
</svg>
